# AST/ASF file generated using VICON BodyLanguage
# -----------------------------------------------
:version 1.10
:name VICON
:units
  mass 1.0
  length 0.45
  angle deg
:documentation
   .ast/.asf automatically generated from VICON data using
   VICON BodyBuilder and BodyLanguage model FoxedUp or BRILLIANT.MOD
:root
   order TX TY TZ RX RY RZ
   axis XYZ
   position 0 0 0  
   orientation 0 0 0 
:bonedata
  begin
     id 1 
     name lhipjoint
     direction 0.693937 -0.600361 0.397515 
     length 2.37164 
     axis 0 0 0  XYZ
  end
  begin
     id 2 
     name lfemur
     direction 0.34202 -0.939693 0  
     length 6.18497  
     axis 0 0 20  XYZ
    dof rx ry rz
    limits (-160.0 20.0)
           (-70.0 70.0)
           (-60.0 70.0)
  end
  begin
     id 3 
     name ltibia
     direction 0.34202 -0.939693 0   
     length 6.91601   
     axis 0 0 20   XYZ
    dof rx
    limits (-10.0 170.0)
  end
  begin
     id 4 
     name lfoot
     direction 0.0978718 -0.2689 0.958182   
     length 1.81453   
     axis -90 7.62852e-016 20   XYZ
    dof rx rz
    limits (-45.0 90.0)
           (-70.0 20.0)
  end
  begin
     id 5 
     name ltoes
     direction 1.53569e-011 -4.21951e-011 1   
     length 0.912052   
     axis -90 7.62852e-016 20   XYZ
    dof rx
    limits (-90.0 20.0)
  end
  begin
     id 6 
     name rhipjoint
     direction -0.643996 -0.637876 0.422354   
     length 2.23216  
     axis 0 0 0  XYZ 
  end
  begin
     id 7 
     name rfemur
     direction -0.34202 -0.939693 0   
     length 6.15404   
     axis 0 0 -20   XYZ
    dof rx ry rz
    limits (-160.0 20.0)
           (-70.0 70.0)
           (-70.0 60.0)
  end
  begin
     id 8 
     name rtibia
     direction -0.34202 -0.939693 0   
     length 6.86744   
     axis 0 0 -20   XYZ
    dof rx
    limits (-10.0 170.0)
 end
 begin
     id 9 
     name rfoot
     direction -0.118701 -0.326127 0.937844   
     length 1.9243  
     axis -90 -7.62852e-016 -20   XYZ
    dof rx rz
    limits (-45.0 90.0)
           (-20.0 70.0)
  end
  begin
     id 10 
     name rtoes
     direction -1.5356e-011 -4.2181e-011 1   
     length 0.958865   
     axis -90 -7.62852e-016 -20   XYZ
    dof rx
    limits (-90.0 20.0)
  end
  begin
     id 11 
     name lowerback
     direction 0.0310826 0.968686 -0.246334   
     length 2.00021   
     axis 0 0 0   XYZ
    dof rx ry rz
    limits (-20.0 45.0)
           (-30.0 30.0)
           (-30.0 30.0)
  end
  begin
     id 12 
     name upperback
     direction -0.0152834 0.999474 -0.0286152   
     length 2.03728   
     axis 0 0 0   XYZ
    dof rx ry rz
    limits (-20.0 45.0)
           (-30.0 30.0)
           (-30.0 30.0)
  end
  begin
     id 13 
     name thorax
     direction -0.0323701 0.996236 0.0804149   
     length 2.16   
     axis 0 0 0   XYZ
    dof rx ry rz
    limits (-20.0 45.0)
           (-30.0 30.0)
           (-30.0 30.0)
  end
  begin
     id 14 
     name lowerneck
     direction 0.0307935 0.982251 0.185027   
     length 1.43558   
     axis 0 0 0   XYZ
    dof rx ry rz
    limits (-20.0 45.0)
           (-30.0 30.0)
           (-30.0 30.0)
  end
  begin
     id 15 
     name upperneck
     direction -0.0927153 0.994775 0.0427454   
     length 1.44603   
     axis 0 0 0   XYZ
    dof rx ry rz
    limits (-20.0 45.0)
           (-30.0 30.0)
           (-30.0 30.0)
  end
  begin
     id 16
     name head
     direction -0.0341265 0.999406 -0.00472033  
     length 1.45931  
     axis 0 0 0   XYZ
    dof rx ry rz
    limits (-20.0 45.0)
           (-30.0 30.0)
           (-30.0 30.0)
  end
  begin
     id 17 
     name lclavicle
     direction 0.820755 0.555306 -0.134151  
     length 2.66075  
     axis 0 0 0   XYZ
    dof ry rz
    limits (-20.0 10.0)
           (0.0 20.0)
  end
  begin
     id 18 
     name lhumerus
     direction 1 -4.48971e-011 5.24853e-027   
     length 5.0546   
     axis -180 -30 -90   XYZ
    dof rx ry rz
    limits (-60.0 90.0)
           (-90.0 90.0)
           (-90.0 90.0)
  end
  begin
     id 19
     name lradius
     direction 1 -4.48971e-011 2.76575e-028   
     length 3.39013   
     axis -180 -30 -90   XYZ
    dof rx
    limits (-10.0 170.0)
  end
  begin
     id 20
     name lwrist
     direction 1 -4.48939e-011 -2.27826e-027   
     length 1.69507   
     axis 2.17013e-015 90 90   XYZ
    dof ry
    limits (-180.0 0.0)
 end
  begin
     id 21 
     name lhand
     direction 1 -4.49009e-011 -4.55652e-027   
     length 0.572425   
     axis 2.90745e-015 90 90   XYZ
    dof rx rz
    limits (-90.0 90.0)
           (-45.0 45.0)
  end
  begin
     id 22 
     name lfingers
     direction 1 -4.48955e-011 -9.11303e-027   
     length 0.461504   
     axis 5.81489e-015 90 90   XYZ
    dof rx
    limits (0.0 90.0)
  end
  begin
     id 23
     name lthumb
     direction 0.707107 -6.34929e-011 0.707107   
     length 0.66263   
     axis -90 45 2.85299e-015   XYZ
    dof rx rz
    limits (-45.0 45.0)
           (-45.0 45.0)
  end
  begin
     id 24 
     name rclavicle
     direction -0.754477 0.632921 -0.173712   
     length 2.73081  
     axis 0 0 0   XYZ 
    dof ry rz
    limits (-10.0 20.0)
           (-20.0 0.0)
  end
  begin
     id 25 
     name rhumerus
     direction -1 -4.48969e-011 5.1496e-027  
     length 5.0701   
     axis -180 30 90   XYZ
    dof rx ry rz
    limits (-90.0 60.0)
           (-90.0 90.0)
           (-90.0 90.0)
  end
  begin
     id 26 
     name rradius
     direction -1 -4.48967e-011 -7.15624e-028   
     length 3.14957   
     axis -180 30 90   XYZ
    dof rx
    limits (-10.0 170.0)
  end
  begin
     id 27 
     name rwrist
     direction -1 -4.48938e-011 -2.27826e-027   
     length 1.57479   
     axis 2.17013e-015 -90 -90   XYZ
    dof ry
    limits (-180.0 0.0)
  end
  begin
     id 28
     name rhand
     direction -1 -4.49008e-011 -4.55652e-027   
     length 0.718191   
     axis 2.90745e-015 -90 -90   XYZ
    dof rx rz
    limits (-90.0 90.0)
           (-45.0 45.0)
  end
  begin
     id 29
     name rfingers
     direction -1 -4.48953e-011 -9.11303e-027   
     length 0.579024   
     axis 5.81489e-015 -90 -90   XYZ
    dof rx
    limits (0.0 90.0)
  end
  begin
     id 30
     name rthumb
     direction -0.707107 -6.34937e-011 0.707107   
     length 0.831366   
     axis -90 -45 -2.85299e-015   XYZ
    dof rx rz
    limits (-45.0 45.0)
           (-45.0 45.0)
  end
:hierarchy
  begin
    root lhipjoint rhipjoint lowerback
    lhipjoint lfemur
    lfemur ltibia
    ltibia lfoot
    lfoot ltoes
    rhipjoint rfemur
    rfemur rtibia
    rtibia rfoot
    rfoot rtoes
    lowerback upperback
    upperback thorax
    thorax lowerneck lclavicle rclavicle
    lowerneck upperneck
    upperneck head
    lclavicle lhumerus
    lhumerus lradius
    lradius lwrist
    lwrist lhand lthumb
    lhand lfingers
    rclavicle rhumerus
    rhumerus rradius
    rradius rwrist
    rwrist rhand rthumb
    rhand rfingers
  end

#!OML:ASF H:\Male1\Project 1\Capture day 1\Session 1\Male1.ASF
:FULLY-SPECIFIED
:DEGREES
121
root 25.3559 15.3858 -0.492534 5.10295 -28.8189 1.48667
lowerback 20.7987 2.65821 3.5148
upperback 13.9334 3.61143 1.81925
thorax 3.6943 1.83126 -0.646987
lowerneck -8.65484 -10.0745 0.614834
upperneck -0.936881 -14.2556 19.6496
head 2.61969 -6.7364 5.01229
rclavicle 2.94201e-014 -3.73715e-014
rhumerus 10.5147 5.69885 -74.8536
rradius 37.2558
rwrist -61.0153
rhand -30.6316 -25.4573
rfingers 7.12502
rthumb -3.92739 -55.4009
lclavicle 2.94201e-014 -3.73715e-014
lhumerus 20.2612 -56.3881 74.7345
lradius 42.604
lwrist 13.9225
lhand -15.5712 36.957
lfingers 7.12502
lthumb 10.6138 66.6689
rfemur -25.2746 0.608034 11.2631
rtibia 31.691
rfoot -24.7927 -31.3416
rtoes -9.34413
lfemur -20.0846 -3.44823 -21.264
ltibia 31.3546
lfoot -17.8332 0.454773
ltoes -1.03976
122
root 25.2877 15.374 -0.513226 4.89462 -28.564 1.94477
lowerback 20.8529 2.40294 3.30278
upperback 13.9421 3.25274 1.91847
thorax 3.64201 1.63179 -0.366716
lowerneck -8.76919 -10.0205 0.280926
upperneck -0.889812 -14.1645 19.5958
head 2.66376 -6.68201 5.04627
rclavicle -1.19271e-014 -4.85035e-014
rhumerus 12.7812 1.70576 -75.4931
rradius 34.2597
rwrist -58.1264
rhand -29.8468 -24.9362
rfingers 7.12502
rthumb -3.16954 -54.8923
lclavicle -1.19271e-014 -4.85035e-014
lhumerus 26.1978 -57.1141 71.8066
lradius 38.7109
lwrist 12.8838
lhand -15.3093 37.2653
lfingers 7.12502
lthumb 10.8665 66.9641
rfemur -25.1804 0.768682 11.0163
rtibia 31.7712
rfoot -25.4237 -31.4787
rtoes -8.90824
lfemur -20.0563 -3.72103 -21.3732
ltibia 31.3294
lfoot -17.7653 0.366638
ltoes -1.61555
123
root 25.2172 15.3681 -0.536413 4.79084 -28.4436 2.32665
lowerback 20.9166 2.17957 3.04333
upperback 13.9335 2.92694 2.06691
thorax 3.56541 1.44213 -0.0126532
lowerneck -8.91498 -9.93224 -0.0722707
upperneck -0.840258 -14.0198 19.4345
head 2.70026 -6.6018 5.05468
rclavicle -1.90833e-014 7.15625e-015
rhumerus 15.0832 -2.1155 -76.3208
rradius 31.4025
rwrist -54.9281
rhand -29.1929 -24.4142
rfingers 7.12502
rthumb -2.53804 -54.3788
lclavicle -1.90833e-014 7.15625e-015
lhumerus 31.0827 -57.1354 69.6667
lradius 35.4037
lwrist 11.6749
lhand -15.0743 37.5512
lfingers 7.12502
lthumb 11.0931 67.2381
rfemur -25.3142 0.702365 10.9768
rtibia 32.0639
rfoot -25.7713 -31.4841
rtoes -8.39466
lfemur -20.0463 -4.01537 -21.3928
ltibia 31.2351
lfoot -17.7106 0.472173
ltoes -2.17112
124
root 25.1426 15.3678 -0.561073 4.77851 -28.4592 2.63229
lowerback 20.9744 2.01098 2.77456
upperback 13.9154 2.66873 2.2371
thorax 3.48612 1.28428 0.35976
lowerneck -9.06448 -9.8347 -0.383218
upperneck -0.823386 -13.8557 19.2105
head 2.71697 -6.5163 5.0409
rclavicle -2.46493e-014 2.62396e-014
rhumerus 17.4169 -5.55461 -77.1762
rradius 28.7038
rwrist -51.6569
rhand -28.7736 -23.8961
rfingers 7.12502
rthumb -2.13308 -53.8652
lclavicle -2.46493e-014 2.62396e-014
lhumerus 34.7065 -56.5813 68.5349
lradius 32.7354
lwrist 10.8111
lhand -14.9379 37.8713
lfingers 7.12502
lthumb 11.2246 67.551
rfemur -25.6144 0.547274 11.084
rtibia 32.4434
rfoot -25.897 -31.4052
rtoes -7.83154
lfemur -20.0318 -4.33153 -21.3219
ltibia 31.0721
lfoot -17.68 0.795802
ltoes -2.77166
125
root 25.0626 15.3719 -0.586162 4.8524 -28.5724 2.85189
lowerback 20.99 1.89961 2.51799
upperback 13.8938 2.48381 2.43234
thorax 3.42872 1.16297 0.741884
lowerneck -9.17524 -9.74617 -0.643305
upperneck -0.84704 -13.6971 18.9605
head 2.70967 -6.4394 5.01446
rclavicle 2.38542e-014 3.4191e-014
rhumerus 19.6919 -8.48401 -77.9537
rradius 26.2476
rwrist -48.518
rhand -28.5986 -23.3813
rfingers 7.12502
rthumb -1.964 -53.352
lclavicle 2.38542e-014 3.4191e-014
lhumerus 37.1436 -55.6241 68.3587
lradius 30.6559
lwrist 10.5402
lhand -14.91 38.1241
lfingers 7.12502
lthumb 11.2516 67.8024
rfemur -25.9987 0.383588 11.3028
rtibia 32.807
rfoot -25.887 -31.2557
rtoes -7.33976
lfemur -20.0103 -4.69072 -21.1501
ltibia 30.8575
lfoot -17.6791 1.3338
ltoes -3.50277
126
root 24.9765 15.3779 -0.611047 4.96855 -28.7208 2.99685
lowerback 20.9657 1.83305 2.29583
upperback 13.8743 2.36035 2.64512
thorax 3.39806 1.07432 1.11476
lowerneck -9.23951 -9.67262 -0.831682
upperneck -0.898919 -13.5573 18.6959
head 2.6818 -6.37662 4.97433
rclavicle 2.46493e-014 0
rhumerus 21.7779 -10.8444 -78.5613
rradius 24.1607
rwrist -45.758
rhand -28.5759 -22.9155
rfingers 7.12502
rthumb -1.94213 -52.8864
lclavicle 2.46493e-014 0
lhumerus 38.774 -54.551 68.7072
lradius 29.0938
lwrist 10.7061
lhand -14.9991 38.4019
lfingers 7.12502
lthumb 11.1657 68.0849
rfemur -26.3531 0.239164 11.5988
rtibia 33.084
rfoot -25.7536 -31.1028
rtoes -7.24812
lfemur -19.9634 -5.14481 -20.8893
ltibia 30.6266
lfoot -17.7105 2.06854
ltoes -4.43293
127
root 24.8835 15.3843 -0.63539 5.07962 -28.8631 3.09109
lowerback 20.9156 1.79423 2.11072
upperback 13.8595 2.27771 2.85876
thorax 3.38939 1.00894 1.46193
lowerneck -9.19219 -9.63194 -0.97369
upperneck -1.00078 -13.4568 18.4872
head 2.62592 -6.34113 4.94683
rclavicle -1.82882e-014 -3.49861e-014
rhumerus 23.5344 -12.5972 -78.9448
rradius 22.571
rwrist -43.6039
rhand -28.5865 -22.5305
rfingers 7.12502
rthumb -1.95237 -52.5013
lclavicle -1.82882e-014 -3.49861e-014
lhumerus 39.8935 -53.5285 69.2332
lradius 27.9322
lwrist 11.017
lhand -15.1384 38.5945
lfingers 7.12502
lthumb 11.0312 68.2846
rfemur -26.5824 0.114412 11.9497
rtibia 33.2303
rfoot -25.645 -30.9613
rtoes -7.36336
lfemur -19.8821 -5.71557 -20.5633
ltibia 30.429
lfoot -17.7889 2.94711
ltoes -5.42895
128
root 24.7841 15.391 -0.659147 5.1977 -28.9798 3.11003
lowerback 20.8488 1.75206 2.00724
upperback 13.8386 2.20391 3.05743
thorax 3.38794 0.954506 1.74623
lowerneck -9.07286 -9.60708 -1.07852
upperneck -1.11158 -13.3798 18.3177
head 2.55858 -6.32034 4.92693
rclavicle -6.36111e-014 -1.43125e-014
rhumerus 24.8379 -13.688 -79.0825
rradius 21.583
rwrist -42.2235
rhand -28.5383 -22.2943
rfingers 7.12502
rthumb -1.90582 -52.2655
lclavicle -6.36111e-014 -1.43125e-014
lhumerus 40.6901 -52.6314 69.6871
lradius 27.0501
lwrist 11.1604
lhand -15.2321 38.5678
lfingers 7.12502
lthumb 10.9409 68.2627
rfemur -26.661 0.0335107 12.3834
rtibia 33.2334
rfoot -25.6372 -30.8922
rtoes -7.69692
lfemur -19.7965 -6.38612 -20.1495
ltibia 30.309
lfoot -17.9127 3.89562
ltoes -6.32168
129
root 24.6783 15.3989 -0.682279 5.3698 -29.0908 2.97879
lowerback 20.7751 1.6889 2.04723
upperback 13.8044 2.12588 3.24189
thorax 3.3829 0.908234 1.93535
lowerneck -8.94169 -9.58373 -1.17137
upperneck -1.17955 -13.3147 18.1739
head 2.50461 -6.30209 4.91144
rclavicle -9.06458e-014 1.43125e-014
rhumerus 25.6314 -14.0784 -78.9617
rradius 21.2202
rwrist -41.6835
rhand -28.3878 -22.2677
rfingers 7.12502
rthumb -1.76048 -52.2402
lclavicle -9.06458e-014 1.43125e-014
lhumerus 41.1103 -51.8115 70.1033
lradius 26.445
lwrist 11.1448
lhand -15.3253 38.3334
lfingers 7.12502
lthumb 10.851 68.033
rfemur -26.612 0.0663536 12.9734
rtibia 33.109
rfoot -25.7416 -30.9302
rtoes -8.15648
lfemur -19.7337 -7.08798 -19.5803
ltibia 30.291
lfoot -18.0555 4.87365
ltoes -7.19372
130
root 24.5665 15.4084 -0.704738 5.59294 -29.2166 2.71274
lowerback 20.7061 1.60208 2.20778
upperback 13.7568 2.03652 3.4037
thorax 3.36729 0.865236 2.0339
lowerneck -8.84444 -9.5531 -1.28125
upperneck -1.165 -13.2549 18.0631
head 2.48527 -6.27812 4.9043
rclavicle -9.54166e-015 -1.11319e-014
rhumerus 25.9476 -13.8378 -78.6361
rradius 21.3983
rwrist -41.8563
rhand -28.1308 -22.4414
rfingers 7.12502
rthumb -1.51222 -52.4158
lclavicle -9.54166e-015 -1.11319e-014
lhumerus 41.0085 -50.9505 70.6558
lradius 26.1142
lwrist 11.0619
lhand -15.4814 37.8269
lfingers 7.12502
lthumb 10.7005 67.5344
rfemur -26.4728 0.230423 13.7059
rtibia 32.8949
rfoot -25.9264 -31.04
rtoes -8.53583
lfemur -19.7006 -7.76684 -18.879
ltibia 30.3823
lfoot -18.1956 5.85182
ltoes -7.98272
131
root 24.4495 15.419 -0.725986 5.80901 -29.3822 2.42349
lowerback 20.6538 1.50205 2.38958
upperback 13.6985 1.93436 3.51558
thorax 3.33427 0.819465 2.0685
lowerneck -8.81315 -9.50767 -1.41912
upperneck -1.04382 -13.1934 17.98
head 2.51257 -6.24208 4.90424
rclavicle 1.27222e-014 2.06736e-014
rhumerus 25.8607 -13.0724 -78.1958
rradius 21.9802
rwrist -42.507
rhand -27.8173 -22.7464
rfingers 7.12502
rthumb -1.20948 -52.7227
lclavicle 1.27222e-014 2.06736e-014
lhumerus 40.2942 -49.9915 71.434
lradius 26.1278
lwrist 11.0555
lhand -15.7058 37.1498
lfingers 7.12502
lthumb 10.484 66.8683
rfemur -26.2797 0.485925 14.4753
rtibia 32.644
rfoot -26.134 -31.1656
rtoes -8.78464
lfemur -19.6781 -8.36278 -18.169
ltibia 30.5711
lfoot -18.2998 6.81581
ltoes -8.68253
132
root 24.328 15.4296 -0.74592 5.95977 -29.586 2.21397
lowerback 20.6192 1.41199 2.50586
upperback 13.6356 1.8362 3.56532
thorax 3.28631 0.774422 2.07218
lowerneck -8.84221 -9.45775 -1.56768
upperneck -0.835112 -13.1415 17.918
head 2.57922 -6.20158 4.90658
rclavicle -1.59028e-015 2.06736e-014
rhumerus 25.4715 -11.8792 -77.6623
rradius 22.8258
rwrist -43.4598
rhand -27.5458 -23.091
rfingers 7.12502
rthumb -0.947241 -53.0687
lclavicle -1.59028e-015 2.06736e-014
lhumerus 39.049 -49.018 72.3358
lradius 26.6202
lwrist 11.3414
lhand -16.005 36.5093
lfingers 7.12502
lthumb 10.1954 66.2422
rfemur -26.055 0.788437 15.1799
rtibia 32.4083
rfoot -26.3533 -31.2638
rtoes -8.86246
lfemur -19.6544 -8.84314 -17.5693
ltibia 30.8498
lfoot -18.319 7.79963
ltoes -9.42866
133
root 24.2026 15.4397 -0.764203 5.99489 -29.8291 2.16642
lowerback 20.6096 1.33059 2.49695
upperback 13.5716 1.73165 3.52761
thorax 3.22187 0.72239 2.0532
lowerneck -8.92888 -9.40026 -1.73574
upperneck -0.535941 -13.0957 17.9019
head 2.68793 -6.15448 4.92066
rclavicle 5.725e-014 -2.06736e-014
rhumerus 24.8411 -10.3556 -77.1578
rradius 23.8771
rwrist -44.5317
rhand -27.3935 -23.3971
rfingers 7.12502
rthumb -0.800143 -53.3754
lclavicle 5.725e-014 -2.06736e-014
lhumerus 37.414 -48.1492 73.1115
lradius 27.6806
lwrist 12.0127
lhand -16.3894 35.8813
lfingers 7.12502
lthumb 9.82447 65.6321
rfemur -25.8027 1.10223 15.7399
rtibia 32.2179
rfoot -26.581 -31.3056
rtoes -8.80701
lfemur -19.6251 -9.1786 -17.176
ltibia 31.2309
lfoot -18.2474 8.81013
ltoes -10.0703
134
root 24.0746 15.449 -0.781251 5.91934 -30.0691 2.25483
lowerback 20.6383 1.24113 2.41038
upperback 13.5061 1.60704 3.40955
thorax 3.13608 0.659361 1.99485
lowerneck -9.05152 -9.33636 -1.90102
upperneck -0.183341 -13.0532 17.9268
head 2.82197 -6.10316 4.94393
rclavicle 4.21423e-014 -2.8625e-014
rhumerus 23.9996 -8.45838 -76.652
rradius 25.0997
rwrist -45.7789
rhand -27.4126 -23.6314
rfingers 7.12502
rthumb -0.818603 -53.6096
lclavicle 4.21423e-014 -2.8625e-014
lhumerus 35.5373 -47.5354 73.5458
lradius 29.3512
lwrist 12.9558
lhand -16.8477 35.3567
lfingers 7.12502
lthumb 9.38233 65.1279
rfemur -25.5101 1.39673 16.1762
rtibia 32.0749
rfoot -26.8383 -31.2923
rtoes -8.58052
lfemur -19.6188 -9.39945 -16.972
ltibia 31.7547
lfoot -18.1047 9.82565
ltoes -10.3197
135
root 23.9453 15.4582 -0.797184 5.79853 -30.2828 2.38371
lowerback 20.6862 1.13128 2.34052
upperback 13.4367 1.46012 3.23534
thorax 3.03854 0.589115 1.87092
lowerneck -9.175 -9.26767 -2.03907
upperneck 0.164429 -13.0082 17.9772
head 2.95474 -6.05064 4.97151
rclavicle -3.02153e-014 1.11319e-014
rhumerus 22.9767 -6.2946 -76.2203
rradius 26.5222
rwrist -47.1566
rhand -27.6263 -23.7658
rfingers 7.12502
rthumb -1.025 -53.7431
lclavicle -3.02153e-014 1.11319e-014
lhumerus 33.436 -47.1731 73.6834
lradius 31.5666
lwrist 13.9497
lhand -17.2985 34.951
lfingers 7.12502
lthumb 8.94728 64.7412
rfemur -25.185 1.66347 16.5789
rtibia 31.956
rfoot -27.0955 -31.2491
rtoes -8.19943
lfemur -19.6968 -9.52676 -16.8684
ltibia 32.4753
lfoot -17.9373 10.8164
ltoes -9.86181
